<svg xmlns="http://www.w3.org/2000/svg" viewBox="0 0 706.55 115.84"><defs><style>.cls-1{opacity:0.5;}</style></defs><title>Asset 5</title><g id="Layer_2" data-name="Layer 2"><g id="Layer_1-2" data-name="Layer 1"><path d="M55.36,0c25.28,0,38.4,13.44,38.4,13.44L89.6,18.88S76.8,6.72,55.36,6.72C27.68,6.72,7.2,29.12,7.2,57.92c0,29,20,51.2,47.68,51.2,24,0,38.4-18.4,38.4-18.4V74.4c0-2.4-1.28-3.52-3.52-3.52H82.88v-6.4h8c6.56,0,9.28,2.72,9.28,9.28v40.16H93.28v-9.76c0-2.4.16-4.8.16-4.8h-.32a51.53,51.53,0,0,1-38.24,16.48C23.68,115.84,0,90.4,0,57.92,0,25.6,24.16,0,55.36,0Z"/><path d="M146.08,32a41.14,41.14,0,0,1,41.44,41.44c0,23.84-18.56,42.4-41.44,42.4s-41.44-18.56-41.44-42.4A41.15,41.15,0,0,1,146.08,32Zm0,77.28c19,0,34.4-15.52,34.4-35.84,0-19.84-15.36-34.88-34.4-34.88s-34.4,15-34.4,34.88C111.68,93.76,127,109.28,146.08,109.28Z"/><path d="M233.44,32a41.15,41.15,0,0,1,41.44,41.44c0,23.84-18.56,42.4-41.44,42.4S192,97.28,192,73.44A41.15,41.15,0,0,1,233.44,32Zm0,77.28c19,0,34.4-15.52,34.4-35.84,0-19.84-15.36-34.88-34.4-34.88S199,53.6,199,73.44C199,93.76,214.4,109.28,233.44,109.28Z"/><path d="M315.52,32c20.16,0,27.36,17.28,27.36,17.28h.32s-.32-2.88-.32-6.56V11.52c0-2.4-1.28-3.52-3.52-3.52h-6.88V1.92h7.84c6.56,0,9.28,2.72,9.28,9.28v93.12c0,2.4,1.28,3.52,3.52,3.52H360v6.08h-7.84c-6.56,0-9.28-2.72-9.28-9.28a50.81,50.81,0,0,1,.32-6.08h-.32s-6.56,17.28-28.64,17.28c-21.44,0-34.56-17.12-34.56-41.92C279.68,48.48,294.56,32,315.52,32ZM343,73.76C343,56,333.92,38.4,315.2,38.4c-15.68,0-28.48,13.12-28.48,35.52,0,21.6,11.52,35.36,27.84,35.36C329.28,109.28,343,98.88,343,73.76Z"/><path class="cls-1" d="M365.6,8.32H355.2V1.92h46.4c17.92,0,30.88,12.32,30.88,31,0,16-9.28,27.2-23,30.08v.32a10.61,10.61,0,0,1,3.2,3.84l18.24,36.64c1.6,3.36,3.84,3.68,8.16,3.68h2.24v6.4H439c-9.44,0-11.68-1-15.36-8.48l-16.8-33.76c-3.36-6.56-5.44-7.36-11.68-7.36H372.48v49.6H365.6Zm35.68,49.6c14.72,0,24-9.76,24-25S416,8.32,401.28,8.32h-28.8v49.6Z"/><path class="cls-1" d="M471.67,32c21.76,0,32.64,17.12,32.64,36.48,0,1.76-.32,4.32-.32,4.32H439.83c0,23.2,15.68,36.48,34.24,36.48a36.22,36.22,0,0,0,24.8-10.08l3.68,5.6a43.59,43.59,0,0,1-28.48,11c-22.56,0-41.28-16.32-41.28-41.76C432.79,47,451.19,32,471.67,32Zm25.6,34.56c-.8-19.52-12.48-28.32-25.76-28.32-14.72,0-28.32,9.6-31.2,28.32Z"/><path class="cls-1" d="M553.27,65.12h5.28V64c0-19-6.56-25.76-23.2-25.76-4.16,0-17.76,1.12-17.76,7.84v5.44h-6.72V44.16C510.87,34.72,529,32,535.51,32c24.48,0,29.76,13.28,29.76,30.24v42.08c0,2.4,1.28,3.52,3.52,3.52h6.88v6.08h-7.84c-6.56,0-9.28-2.56-9.28-9.76,0-4.32.32-7.2.32-7.2h-.32c.16,0-6.88,18.88-27.68,18.88-13,0-27.2-7.2-27.2-23.2C503.67,65.44,539,65.12,553.27,65.12ZM531.19,109.6c17.44,0,27.36-18.08,27.36-33.92V71.36h-5.12c-13.6,0-42.72,0-42.72,20.8C510.71,100.64,517.59,109.6,531.19,109.6Z"/><path class="cls-1" d="M606.39,32c20.16,0,27.36,17.28,27.36,17.28h.32s-.32-2.88-.32-6.56V11.52c0-2.4-1.28-3.52-3.52-3.52h-6.88V1.92h7.84c6.56,0,9.28,2.72,9.28,9.28v93.12c0,2.4,1.28,3.52,3.52,3.52h6.88v6.08H643c-6.56,0-9.28-2.72-9.28-9.28a50.81,50.81,0,0,1,.32-6.08h-.32s-6.56,17.28-28.64,17.28c-21.44,0-34.56-17.12-34.56-41.92C570.55,48.48,585.43,32,606.39,32Zm27.52,41.76c0-17.76-9.12-35.36-27.84-35.36-15.68,0-28.48,13.12-28.48,35.52,0,21.6,11.52,35.36,27.84,35.36C620.15,109.28,633.91,98.88,633.91,73.76Z"/><path class="cls-1" d="M655,97.12a31.25,31.25,0,0,0,24.8,12.16c10.24,0,19.68-5.12,19.68-15,0-20.16-46.08-15.68-46.08-41.44C653.43,39,665,32,680.79,32c6.88,0,22.56,3,22.56,13.6v6.08h-6.72V47.84c0-6.72-9.92-9.28-15.52-9.28-13,0-20.64,4.64-20.64,13.76,0,20.48,46.08,15.52,46.08,41.92,0,12.8-11.68,21.6-26.88,21.6-20.16,0-29.44-13.76-29.44-13.76Z"/></g></g></svg>